<svg width="16" height="16" viewBox="0 0 16 16" fill="none" xmlns="http://www.w3.org/2000/svg">
<rect width="16" height="16" rx="8" fill="white"/>
<path d="M6.16147 9.2144C6.12547 9.0536 6.07147 8.9144 5.99947 8.7968C5.92747 8.6792 5.83027 8.5892 5.70787 8.5268C5.58547 8.4644 5.43187 8.4332 5.24707 8.4332H4.77547V8.1956H5.24707C5.43187 8.1956 5.58547 8.168 5.70787 8.1128C5.83027 8.0552 5.92747 7.9712 5.99947 7.8608C6.07147 7.7504 6.12547 7.6148 6.16147 7.454H6.39547V9.2144H6.16147ZM7.40347 5.6V7.076H7.16587C7.12987 6.8192 7.06267 6.5984 6.96427 6.4136C6.86827 6.2264 6.73267 6.0824 6.55747 5.9816C6.38227 5.8808 6.16027 5.8304 5.89147 5.8304H5.12107V10.7696H5.83747V11H3.34987V10.7696H4.00147V5.8304H3.34987V5.6H7.40347ZM8.92869 11V10.7696H9.72069V5.8304H9.30669C9.11469 5.8304 8.95029 5.8652 8.81349 5.9348C8.67909 6.0044 8.56629 6.1052 8.47509 6.2372C8.38629 6.3692 8.31429 6.5276 8.25909 6.7124C8.20629 6.8948 8.16669 7.1 8.14029 7.328H7.89909V5.6H12.6547V7.328H12.4207C12.3943 7.1 12.3535 6.8948 12.2983 6.7124C12.2455 6.5276 12.1735 6.3692 12.0823 6.2372C11.9935 6.1052 11.8807 6.0044 11.7439 5.9348C11.6095 5.8652 11.4463 5.8304 11.2543 5.8304H10.8367V10.7696H11.6287V11H8.92869Z" fill="black"/>
</svg>
