<svg width="109" height="108" viewBox="0 0 109 108" fill="none" xmlns="http://www.w3.org/2000/svg">
<path d="M104.25 57.3247C104.25 74.7299 91.2161 88.3247 75.75 88.3247C60.2839 88.3247 47.25 74.7299 47.25 57.3247C47.25 39.9196 60.2839 26.3247 75.75 26.3247C91.2161 26.3247 104.25 39.9196 104.25 57.3247Z" stroke="#2EC7AB" stroke-width="8"/>
<path d="M31.499 22.8071L30.1045 100.276" stroke="#E59797" stroke-width="10" stroke-linecap="round"/>
<path fill-rule="evenodd" clip-rule="evenodd" d="M75.0562 4.46767C76.8459 6.57067 76.5919 9.72628 74.4889 11.5159L13.0534 63.7978L52.0011 86.0491C54.3988 87.4189 55.2321 90.4731 53.8622 92.8708C52.4924 95.2685 49.4382 96.1018 47.0405 94.7319L4.3822 70.3608C0.169688 67.9541 -0.376691 62.096 3.318 58.9518L68.0079 3.90033C70.1109 2.11067 73.2666 2.36468 75.0562 4.46767Z" fill="#2E81C7"/>
<path fill-rule="evenodd" clip-rule="evenodd" d="M25.7484 66.1486L26.4404 27.7052L36.3874 30.7419L35.6954 69.1853L25.7484 66.1486Z" fill="#E59797"/>
 <!-- <defs>
    <linearGradient id="gradient" x1="16" x2="16" y1="32" y2="24" gradientUnits="userSpaceOnUse">
      <stop stop-color="#000"/>
      <stop offset="1" stop-color="#000" stop-opacity="0"/>
    </linearGradient>
  </defs> -->
	<style>
    @media (prefers-color-scheme:dark){:root{filter:invert(100%)}}
  </style>
</svg>
